IKResults EF3
version=1
nRows=14
nColumns=24
inDegrees=yes

Units are S.I. units (second, meters, Newtons, ...)
If the header above contains a line with 'inDegrees', this indicates whether rotational values are in degrees (yes) or radians (no).

endheader
time	pelvis_tilt	pelvis_list	pelvis_rotation	pelvis_tx	pelvis_ty	pelvis_tz	hip_flexion_r	hip_adduction_r	hip_rotation_r	knee_angle_r	ankle_angle_r	subtalar_angle_r	mtp_angle_r	hip_flexion_l	hip_adduction_l	hip_rotation_l	knee_angle_l	ankle_angle_l	subtalar_angle_l	mtp_angle_l	lumbar_extension	lumbar_bending	lumbar_rotation
      4.26000000	     -2.76004908	     -2.60140397	    -82.72596144	     -0.27064676	      0.97001875	     -2.64917990	     14.44616687	      6.30762418	     -1.12800555	    -23.18294316	      9.91627576	    -11.30210491	      0.00000000	     16.40969927	     -2.72796383	      2.64608462	    -71.38208295	    -10.97611729	    -31.08059185	      0.00000000	    -13.52594639	      5.03819210	      2.35625552
      4.27000000	     -2.68754666	     -2.71588394	    -83.33952336	     -0.27198306	      0.97226702	     -2.63475613	     12.92693397	      6.52616616	     -0.56074574	    -22.44309396	      9.95767911	    -11.25915240	      0.00000000	     18.01225462	     -2.63232119	      2.07205231	    -71.12133860	    -10.90996032	    -31.12142548	      0.00000000	    -13.67358054	      4.91459268	      2.43498933
      4.28000000	     -2.65439648	     -2.87583998	    -83.90425943	     -0.27330397	      0.97427008	     -2.62042268	     11.41548967	      6.76207816	     -0.10655736	    -21.79127053	     10.66942916	    -10.96438671	      0.00000000	     19.47560106	     -2.60908761	      1.55732522	    -70.62508032	     -9.93945110	    -31.47455375	      0.00000000	    -14.04631820	      4.66529639	      3.80735900
      4.29000000	     -2.64133011	     -2.98267435	    -84.50819342	     -0.27477515	      0.97589906	     -2.60621489	      9.95709049	      7.08905246	      0.83540997	    -21.12007779	     11.35095318	    -10.71601799	      0.00000000	     20.96737564	     -2.66895734	      1.05790334	    -69.87691621	     -9.04992580	    -30.98696148	      0.00000000	    -14.13366049	      4.38129809	      4.77342935
      4.30000000	     -2.55059815	     -3.16178685	    -85.25232549	     -0.27618841	      0.97740218	     -2.59166174	      8.41857174	      7.30254670	      1.92241479	    -20.54206736	     11.86252841	    -10.83771041	      0.00000000	     22.17494637	     -2.69168466	      0.38673998	    -68.76509917	     -8.39971060	    -30.72879073	      0.00000000	    -14.46595222	      4.14117129	      5.64901577
      4.31000000	     -2.50502414	     -3.29637523	    -85.85110661	     -0.27751097	      0.97832533	     -2.57752453	      6.99167051	      7.55515815	      2.98907030	    -20.00631986	     12.47763992	    -11.24904109	      0.00000000	     23.45043772	     -2.75325064	     -0.10873485	    -67.50818881	     -7.43645595	    -30.34025573	      0.00000000	    -14.63840390	      3.87040470	      6.48559952
      4.32000000	     -2.36972962	     -3.42217702	    -86.64787670	     -0.27899840	      0.97895592	     -2.56322544	      5.62257660	      7.67346750	      4.17039329	    -19.61667904	     13.04778293	    -11.60963198	      0.00000000	     24.56752308	     -2.82514032	     -0.82395688	    -65.94401356	     -6.85696458	    -29.77365790	      0.00000000	    -14.80154285	      3.48795968	      7.46511784
      4.33000000	     -2.24140450	     -3.52677112	    -87.43014772	     -0.28029686	      0.97925806	     -2.54883427	      4.22230737	      7.76596531	      5.37903220	    -19.08881140	     13.55357644	    -12.04165410	      0.00000000	     25.56485869	     -2.88995015	     -1.51631992	    -64.11464403	     -6.17612912	    -29.49243246	      0.00000000	    -14.90747297	      3.12891540	      8.27417371
      4.34000000	     -2.15287444	     -3.63588922	    -88.20935197	     -0.28164721	      0.97924267	     -2.53454040	      2.80921165	      7.85641301	      6.66940635	    -18.59016660	     14.08149056	    -12.53674655	      0.00000000	     26.49362088	     -3.04295725	     -2.21858715	    -62.08209786	     -5.63692686	    -29.32014611	      0.00000000	    -15.03800392	      2.81167079	      9.09366021
      4.35000000	     -2.06893412	     -3.71607695	    -88.99059153	     -0.28291974	      0.97888650	     -2.52020071	      1.42081890	      7.86727295	      7.66957437	    -18.06587919	     14.64389410	    -12.91745834	      0.00000000	     27.33491128	     -3.21020645	     -2.88266493	    -59.85076073	     -5.00367153	    -29.30816260	      0.00000000	    -15.12385953	      2.48685063	      9.94230257
      4.36000000	     -2.07257380	     -3.78686233	    -89.73251341	     -0.28416281	      0.97829467	     -2.50595196	      0.01283342	      7.92562735	      8.66641562	    -17.49853293	     15.13881994	    -13.21924845	      0.00000000	     28.09808771	     -3.43740347	     -3.45829479	    -57.42430111	     -4.53173958	    -29.38302348	      0.00000000	    -15.23373790	      2.25819113	     10.71401101
      4.37000000	     -2.09101356	     -3.85136779	    -90.46486722	     -0.28532639	      0.97749414	     -2.49166708	     -1.36511897	      7.90511186	      9.34377574	    -16.94537112	     15.39278247	    -13.25327279	      0.00000000	     28.77946272	     -3.70701421	     -4.05712058	    -54.84906047	     -4.28420104	    -29.46799424	      0.00000000	    -15.36059404	      1.94994918	     11.08293885
      4.38000000	     -2.17275068	     -3.89838844	    -91.17712336	     -0.28639853	      0.97646995	     -2.47733195	     -2.72812094	      7.88992355	      9.90495713	    -16.38207513	     16.11233133	    -13.20269045	      0.00000000	     29.41530187	     -4.04239413	     -4.53955522	    -52.19893602	     -3.67809819	    -29.59736600	      0.00000000	    -15.40140248	      1.79797693	     12.09683361
      4.39000000	     -2.26009256	     -3.88050777	    -91.83270821	     -0.28730814	      0.97515020	     -2.46299493	     -3.99147454	      7.85079968	     10.35333899	    -15.87874818	     16.86361982	    -12.77334919	      0.00000000	     30.00947730	     -4.30976113	     -4.97409234	    -49.31516296	     -2.98008771	    -29.46517162	      0.00000000	    -15.37206684	      1.78505060	     12.89882668
